<svg version="1.2" xmlns="http://www.w3.org/2000/svg" viewBox="0 0 2169 1345" width="2169" height="1345">
	<title>Black_Transparent-svg</title>
	<style>
		.s0 { fill: #000000 } 
	</style>
	<g id="Layer">
		<path id="Layer" fill-rule="evenodd" class="s0" d="m2156.8 892.5c31.1 51-15.2 77-55.1 73.1-39.9-3.9-49.4-37.2-49.4-37.2 58.8 15.5 73.4-32.8 38.5-62.2-35-29.3-38.6-76.1-38.6-76.1-78.8 128.1-213.6 184.7-284.3 151.2-37-17.4-21.5-89.2-22.8-121.2-1.3-29.3-20.7-19.9-20.7-19.9-18.9 14.6-45.8 40.8-73.1 68.8-44.4 45.6-89.5 95.9-101.5 109.4-1 1.2-2.3 2.5-3.1 3.5-5.6 5.4-13.1 8.7-21.5 8.7-17.1 0-31.1-15.7-31.1-32.8 3.3-29.1 11.7-57.4 22-84.7 11.3-30 25.2-59.2 40.5-87.5 15-27.9 31.3-55.1 48.4-81.7 14.7-22.7 30-45 45.8-66.9 12.2-17 25-33.7 37.4-50.5 11.6-15.7 27.3-34.4 49.1-24.4 11.9 5.5 19.8 19.4 17.9 32.5-2.1 14.2-14.8 23.6-23.6 33.9-9.3 10.8-18.1 22-26.6 33.4-18.8 25.3-36.3 51.5-53.2 78.2-16 25.3-31.4 50.9-46.3 76.8-10.6 18.4-21 36.8-31.1 55.4-2.7 5-5.4 9.9-8 14.9l-0.2 0.4c36.1-45.5 153.4-157.3 191-159.6 5-0.3 8.6 1 10.6 4.5 16.3 28.3-7.4 106.6-9.1 112.4 0 0.1-0.1 0.2-0.2 0.3v0.1c0 0 0.1 0 0.1-0.1 0-0.1 0.1-0.2 0.1-0.3 78.8-148.9 170-191.5 211-174.9 40.9 16.6 65.6 88.8 4 135.7-61.5 46.9-130.8 25.2-130.8 25.2-91.2 147.3 77.1 62.4 125.6 22.4 48.5-39.9 85.2-94.1 85.2-94.1 16.9-58.9 42.3-93.4 57-109.6l0.1-0.1 6.3-6.1c6.5-6.3 15.5-10 24.5-8.8 2 0.2 4 0.6 6 1.3 10.6 3.5 18.7 13 20.6 24.1 1.4 9.1 0.8 19-8.1 28.2-125.2 124.6-30 160-3.3 204.3zm-288.5-100.3c0 0 39.8 19.1 76.7-7.4 31.9-23 49.6-83.9-4.4-61.5-54.1 22.4-72.3 68.9-72.3 68.9z"/>
		<path id="Layer" class="s0" d="m1173.6 1094.7c-6.4 14.6-16.9 26.7-27.6 39 302.2 53.7 480.2 34.4 1005.2-101.6-527.6 136.7-865.3 87.3-977.6 62.6z"/>
		<path id="Layer" fill-rule="evenodd" class="s0" d="m1270 833.2c-132.9 292-205.1 330.5-205.1 330.5 0 0-34.1 24.9-22.5-51.6 0 0 11.8-81.3 105.6-319.4-2.7 4.5-85.6 141.3-157.3 162.4-72.9 21.3-126.8-51.1-63.1-155 63.8-104 157.5-151.5 172.3-149.2 14.7 2.2 2.6 82.2 59.3 77.3 56.8-5 239.9-240.5 239.9-240.5 0 0-263.9 65.5-484.9 111.5-30.4 52.8-58.3 105.1-82 154.7 67.6 77.6-10.7 209.2-68 203.4-54.1-5.5-36.4-65.1-36.4-65.1 10.8-38 31.5-87.1 57.3-140.5-5.4-2.5-11.5-4.8-18.3-6.8-50-14.8-104.8-10.4-156.2 6.3-19.9 6.4-38.9 14.8-57.1 24.8l-279.2 322.9c330.7-132.1 478.3-118.3 744.9-47.7-3.4 17.9-6.9 35.7-10.5 53.5-66.5-14.3-134.9-27.3-206.3-37-328.1-44.3-802.1 277.2-802.1 277.2l47.9-59.1 102.7-124.3 239.3-289.8c-72.6 31.8-153.1 64-196.3 63.7-71.5-0.5 24.5-170.6 449-315.4 12.6-12.5 25.7-25.9 38.9-40.2 132.6-143.2 340.4-326.9 482.6-448.8 29.1-24.9 55.5-47.3 77.9-66.2 46.2-39 75.7-63.2 77.8-64.9-4.7 6.2-201.2 260.5-361 523.4 149.5-41.6 327.2-86.1 537.3-133.1 37.3-8.4 60.8 38.7 31.8 63.5-138.9 118.9-353.3 341-416.6 598.4 0 0 13.5 18.6 109.9-155 82.4-148.3 147.9-222.5 147.9-222.5 0 0 145.3-37 156.2 22.6 11 59.6-107.9 240.6-169.6 263.9-61.7 23.3-88.8-59.5-86.6-125.2m72.9 56.2c34-13.8 81.2-80.3 81.2-80.3-11.7-45.2 17.6-89-27.5-56.2-45.1 32.7-73.5 106.1-73.5 106.1 0 0-14.1 44.2 19.8 30.4zm-741.6-222.9c0 0-52.1 17.9-77 27.7 0 0-174.2 74.6-273.7 156-99.5 81.4 22.2 42.1 108.3 4.2 43.2-19 65.6-28 65.6-28zm218.9 111.6c-29.7 58.4-30.8 62.7-53.2 126.2 0 0 16.4 13.1 34.3-7.9 15.7-18.4 39.5-65.4 18.9-118.3zm38.9-169.8c-65 14.2-131 29.9-193.6 46.8l-70.8 75.1c62.6-19 124-28.1 177.2-13.3 9.1 2.6 17.4 5.7 25 9.2 19.1-38.3 40.4-78.4 62.2-117.8zm177.5-298.9c-10.8 10.5-138.6 129.4-296.4 276.1 48.6-15.4 101.4-31.3 158.6-47.7 70.7-123 135.8-225.2 137.8-228.4zm6 443.5c-45 32.7-73.4 106.1-73.4 106.1 0 0-14.1 44.3 19.8 30.5 33.9-13.9 74.2-75.1 74.2-75.1-11.7-45.2 24.5-94.2-20.6-61.5z"/>
	</g>
</svg>