<?xml version="1.0" encoding="utf-8"?>
<!-- Generator: Adobe Illustrator 26.0.0, SVG Export Plug-In . SVG Version: 6.00 Build 0)  -->
<svg version="1.1" id="Layer_1" xmlns="http://www.w3.org/2000/svg" xmlns:xlink="http://www.w3.org/1999/xlink" x="0px" y="0px"
	 viewBox="0 0 3200 3200" style="enable-background:new 0 0 3200 3200;" xml:space="preserve">
<style type="text/css">
	.st0{fill:#FFFFFF;}
	.st1{fill:url(#SVGID_1_);}
	.st2{fill:url(#SVGID_00000084528665880701748010000002022171625628303517_);}
	.st3{fill:url(#SVGID_00000034775125695959258220000013026617324492313216_);}
	.st4{fill:url(#SVGID_00000002368617761747413870000018333011447447119796_);}
	.st5{fill:url(#SVGID_00000113337338770808738590000002508172264861153965_);}
	.st6{fill:url(#SVGID_00000070083796184998298290000002248008408924158374_);}
	.st7{stroke:url(#SVGID_00000033346638968550575420000002171621768016755898_);stroke-width:60;stroke-miterlimit:10;}
	.st8{fill:url(#SVGID_00000054960609836186623640000001018681000135571599_);}
	.st9{fill:url(#SVGID_00000114057871153712674150000010927957011831248023_);}
	
		.st10{fill:#F2EDEF;stroke:url(#SVGID_00000164492016197818216520000000407114278961030066_);stroke-width:60;stroke-miterlimit:10;}
	.st11{fill:url(#SVGID_00000147906469146927908900000012049064724587179675_);}
	.st12{fill:url(#SVGID_00000069358021096615166430000011242094369594632322_);}
	.st13{fill:url(#SVGID_00000055693251171303708850000008658233092110358438_);}
	.st14{fill:url(#SVGID_00000137851556059485485180000016188141141070714302_);}
	.st15{fill:url(#SVGID_00000037665715371534104540000007486667176998184839_);}
	.st16{fill:url(#SVGID_00000096032422487611053710000011818102127527199406_);}
	.st17{fill:url(#SVGID_00000145742207930998593480000013911110176570766733_);}
	.st18{fill:url(#SVGID_00000125582780269634462380000004420326967850122676_);}
	.st19{fill:url(#SVGID_00000074436594980531030370000001123221570929514406_);}
	.st20{fill:url(#SVGID_00000045577789616636922170000013547164759459828130_);}
	.st21{fill:url(#SVGID_00000107570715928611780910000000494665723334947489_);}
	.st22{fill:url(#SVGID_00000160165938982130597020000016266370882476132482_);}
	.st23{fill:url(#SVGID_00000017479812593877803320000008985777760145268361_);}
	.st24{fill:url(#SVGID_00000161617938840081974970000005023571132731002264_);}
	.st25{fill:#FFB715;}
</style>
<rect x="-2.8" y="-3208" class="st0" width="3201.3" height="3219.5"/>
<linearGradient id="SVGID_1_" gradientUnits="userSpaceOnUse" x1="1582.3684" y1="2709.3369" x2="1582.3684" y2="502.9789">
	<stop  offset="0" style="stop-color:#E9C156"/>
	<stop  offset="0.3424" style="stop-color:#FFFFAA"/>
	<stop  offset="0.4736" style="stop-color:#E1AB39"/>
	<stop  offset="0.7641" style="stop-color:#633119"/>
</linearGradient>
<circle style="stroke:url(#SVGID_1_);stroke-width:60;stroke-miterlimit:10;" cx="1582.4" cy="1606.2" r="1073.2"/>
<g>
	<g>
		
			<linearGradient id="SVGID_00000136407346294595658740000006599406168820747919_" gradientUnits="userSpaceOnUse" x1="1946.3127" y1="1236.4" x2="1946.3127" y2="72.2894" gradientTransform="matrix(0.9784 0.2065 -0.2065 0.9784 -245.5083 681.9473)">
			<stop  offset="0" style="stop-color:#E9C156"/>
			<stop  offset="0.3424" style="stop-color:#FFFFAA"/>
			<stop  offset="0.4736" style="stop-color:#E1AB39"/>
			<stop  offset="0.7641" style="stop-color:#633119"/>
		</linearGradient>
		<path style="fill:url(#SVGID_00000136407346294595658740000006599406168820747919_);" d="M1323.4,2365.3l-2.1-139.7l27-122.9
			l56.4-256.4c-32.9,39.2-69.9,79.3-96.7,92.9c-4.5,2.3-8.8,3.4-12.9,3.4c-8.4,0-15-4.7-18.7-13.3c-9.8-23.1,2.5-71.6,32.8-129.9
			c26.9-51.7,81.3-136.4,187.7-246.8c4.5-13.9,8.4-26.9,12-39.7c40.4-144.3,117.2-341.4,174.5-481.4c11.1-27.1,21.4-51.8,30.4-73.3
			c10.6-25.4,20.7-49.2,30-70.7l0.7-1.6l13.3,4l-0.1,0.4c-4.8,25.9-47.3,260-63.8,487.9l-4.2,68.2c-2.3,47.4-3,91.4-2,130.7
			c41.6,19.1,56.4,64,56.3,100.5c-0.1,36.6-14.4,66.8-35.6,75.1c-6,2.4-11.8,3.5-17.3,3.5c-32.3,0-40-39.2-40.3-40.8
			c-5.4-26.7-8.8-64-10.1-110.9c-2.3,0.3-4.6,0.6-7,1.1c-35.8,6.7-71,26.6-101.9,57.7c-10.5,10.6-20.3,22.4-29.1,35.3l-78.2,320.4
			l-87.8,348L1323.4,2365.3z M1453.4,1656c-2.9,3.5-94.1,114.4-132.6,202.8c-8.8,20.2-10.8,29.4-11.2,33.4
			c3.7-1.8,12.1-7.2,28.5-23.4c14-13.9,31.2-33.1,47.1-52.7c19.6-24.1,31.6-38.1,34.7-41.7l52.7-139.3
			C1465.5,1642.7,1458.4,1650.4,1453.4,1656z M1689.1,1622.8c0.3,32.2,1.6,41.3,6.9,80.4c3.1-1.2,6.3-4.4,8-11.7
			C1707.6,1676.4,1707.5,1647.4,1689.1,1622.8z M1523.1,1629.4c36.1-31.4,69.8-50,102.5-56.7c5.1-1,10-1.8,14.8-2.2
			c-0.2-24.8,0.1-51.7,0.9-81.6c-37.5,31.1-72.3,61.2-103.5,89.4L1523.1,1629.4z M1654,1257.5c-18.7,51.9-49.1,135.6-78.2,216
			c21.8-21.3,44.7-43.2,68.6-65.6C1647.2,1349.3,1651,1295.8,1654,1257.5z"/>
	</g>
	
		<linearGradient id="SVGID_00000093898536770752995080000007451220573576565928_" gradientUnits="userSpaceOnUse" x1="196.9134" y1="2957.3545" x2="-525.6287" y2="4344.3774" gradientTransform="matrix(0.8899 -0.4562 0.4562 0.8899 -5.4274 -1666.7338)">
		<stop  offset="0" style="stop-color:#E9C156"/>
		<stop  offset="0.3424" style="stop-color:#FFFFAA"/>
		<stop  offset="0.4736" style="stop-color:#E1AB39"/>
		<stop  offset="0.7641" style="stop-color:#633119"/>
	</linearGradient>
	<path style="fill:url(#SVGID_00000093898536770752995080000007451220573576565928_);" d="M1418.2,2017.3l78.5-321.6
		c9-13.3,19.2-25.9,30.6-37.4c29.6-29.7,65.8-52.2,105.6-59.6c5.4-1,10.4-1.6,15-1.8c1.1,46,4.1,87.2,10.2,117.2
		c0,0,8.8,47.4,48.1,32.1c41.6-16.3,49.1-134.8-25.1-164.5c-1.2-42.7-0.4-88.6,1.9-135.8l4.2-68.3c17.3-238,62.9-483.1,64-489
		c-0.8,1.9-12.6,29.1-30.7,72.3c-8.8,21-19.1,45.7-30.4,73.3c-55,134.5-133.4,334.8-174.3,480.6c-4.1,14.6-8.3,28.4-12.6,41.5
		c-241.7,250.2-247.8,401.5-198.3,376.6c29.9-15.1,74.1-65.8,112.9-113.4l-62.6,284.8l-26.9,122.1l2.1,138.9L1418.2,2017.3z
		 M1710.8,1693.1c-4.9,20.9-20.9,17.6-20.9,17.6c-7-51.7-7.8-55.1-7.9-105.9C1714.9,1634,1715.1,1674.8,1710.8,1693.1z
		 M1665.5,1204.6c-0.3,2.9-9,96.5-14.3,206.4c-33.7,31.6-64.5,61.2-92.5,89.1C1615.7,1343,1661.8,1215.7,1665.5,1204.6z
		 M1531.7,1574.6c37.3-33.8,77.2-68,117.1-100.8c-1.1,34.9-1.6,70.1-1.2,103.3c-6.5,0.2-13.3,1.1-20.5,2.5
		c-41.9,8.6-81.1,36.6-117.6,71.9L1531.7,1574.6z M1390.6,1820.6c-46.1,56.6-116.1,126.8-76.2,35.5
		c39.9-91.4,133.7-204.6,133.7-204.6c13.7-15.6,43.3-46.4,43.3-46.4l-65.4,173C1426,1778.1,1413.7,1792.2,1390.6,1820.6z"/>
</g>
</svg>
